<?xml version="1.0" encoding="UTF-8"?>
<svg id="Layer_2" data-name="Layer 2" xmlns="http://www.w3.org/2000/svg" viewBox="0 0 562.96 618.36">
  <defs>
    <style>
      .cls-1 {
        fill: #016ea8;
      }

      .cls-2 {
        fill: #c0bdbc;
      }

      .cls-3 {
        fill: #98ca3c;
      }
    </style>
  </defs>
  <g id="Layer_1-2" data-name="Layer 1">
    <g>
      <path class="cls-2" d="M562.95,558.44v.17l-4.39.67-15.37-.2-17.09-27.98-17.13,28.1-19.31-.28,27.12-45-25.95-43.43,19.32-.05,15.96,26.26,15.92-26.33,19.42.15-25.84,43.58,26.09,43.29c.35.58,1.36,1.23,1.26,1.05Z"/>
      <path class="cls-2" d="M485.14,618.36h-9.32c-8.42-3.01-14.25-9.79-13.92-19.19.24-6.97,4.1-12.63,9.24-15.58,6.28-3.61,13.29-1.99,18.73.36,1.48.64,5.04-1.48,5.7,2.07l-4.37,6.03c-4.03-5.42-9.8-7.26-15.92-5.1-5.12,1.81-8.44,7.34-8.29,13.32.19,8.18,6.39,14.15,14.63,13.39,5.13-.47,9.61-3.1,10.46-8.86l-11.94-.21,1.31-4.72,15.82.03c.8,10.37-3.92,14.67-12.12,18.47Z"/>
      <path class="cls-2" d="M89.43,618.36h-9.32c-8.42-3.01-14.25-9.79-13.92-19.19.24-6.97,4.11-12.63,9.25-15.59,6.27-3.61,13.5-1.94,18.66.28,1.62.68,5.08-1.5,5.77,2.17l-4.39,6.01c-4.02-5.42-9.8-7.26-15.91-5.1-5.13,1.81-8.43,7.35-8.29,13.32.19,8.2,6.37,14.11,14.64,13.38,5.11-.45,9.6-3.11,10.45-8.85l-11.94-.21,1.31-4.72,15.82.03c.81,10.37-3.92,14.67-12.12,18.48Z"/>
      <path class="cls-2" d="M135.37,160.18l-1.42,123.03-54.65-17.65,14.65-26.66c-4.31-16.11-7.69-31.77-9.95-48.41-6.42-46.24,4.61-92.09,30.79-130.57,10.66-15.67,24.98-28.53,42.73-35.43,14.91-5.79,31.41-4.39,46.09.26-14.89,1.44-24.1,1.6-36.47,10.57-8.64,6.27-16,13.47-22.46,22.07-8.82,11.75-16.64,23.97-21.97,37.84-6.73,17.53-10.67,35.71-12.05,54.42-1.25,17.02.88,33.29,4.83,50.52l19.87-39.99Z"/>
      <path class="cls-2" d="M366.83,410.87c14.66-1.51,23.26-1.39,35.59-9.98,20.62-14.35,35.32-37.73,45.55-60.41,12.28-36.33,16.3-66.26,6.94-105.04l-19.83,39.92,1.39-123,54.64,17.7-14.65,26.64c4.37,16.31,7.78,32.17,10.03,49.03,6.25,46.06-4.82,91.66-30.87,129.96-10.56,15.53-24.67,28.25-42.2,35.24-15.01,5.98-31.77,4.66-46.6-.06Z"/>
      <polygon class="cls-2" points="269.92 255.21 269.19 203.61 248.51 246.85 234.5 246.87 213.26 202.4 213.11 255.15 193.79 255.14 193.79 171.99 217.44 172.02 241.47 220.8 265.43 172 289.09 171.99 289.11 255.08 269.92 255.21"/>
      <path class="cls-1" d="M286.36,83.92c-33.44-5.78-67.78,3.38-96.98,19.35-11.34,6.2-21.1,13.52-30.48,22.25-4.67,4.35-9.16,8.51-13.33,13.35-2.64,3.07-5.06,5.67-8.7,9.38-.16-16.06,2.07-31.11,6.1-46.37,6.44-24.41,20.63-43.92,41.34-61.09l-3.96,38.97c45.34-20.6,95.72-21.13,137.41,7.05,3.09,2.09,5.44,4.58,7.12,7.7-12.93-4.27-25.17-8.29-38.52-10.6Z"/>
      <path class="cls-1" d="M390.07,355.83c-44.78,20.57-96.33,21.16-137.42-7.09-3.02-2.08-5.44-4.52-7.1-7.64,12.92,4.23,25.16,8.31,38.51,10.57,39.54,6.69,91.52-9.43,119.13-34.2l8.28-7.43c10.82-9.7,11.27-11.52,22.06-22.66.17,16.06-2.07,31.09-6.09,46.33-6.44,24.42-20.62,43.9-41.35,61.1l3.97-38.99Z"/>
      <polygon class="cls-2" points="71.74 497.45 48.58 530.31 25.34 497.35 25.08 559.13 7.77 559.18 7.73 487.59 0 487.4 4.57 470.42 27.27 470.45 48.44 502.46 69.72 470.45 89.39 470.42 89.41 559.1 71.95 559.19 71.74 497.45"/>
      <path class="cls-2" d="M210.58,559.21l-35.66-.03-.03-71.39-7.73-.44,4.56-16.93,39.9.06c16.4.02,30.7,9.78,37.33,24.62,5.73,12.82,5.44,27.18-.16,39.9-7.07,14.96-21.29,24.24-38.23,24.22ZM233.14,527.58c3.82-8.34,3.54-17.32.16-25.47-4.02-8.53-12-14.57-21.65-14.58h-18.64s0,54.62,0,54.62l17.2.04c9.92.02,18.67-5.27,22.95-14.61Z"/>
      <path class="cls-2" d="M380.7,559.21l-35.66-.04-.02-71.36-7.72-.51,4.55-16.85,38.42-.1c16.98-.04,31.92,9.14,38.85,24.77,5.57,12.56,5.45,26.76.04,39.36-6.94,15.23-21.33,24.74-38.45,24.72ZM403.32,527.65c3.56-8.48,3.68-17.36.03-25.53-3.82-8.56-12.03-14.56-21.57-14.58l-18.66-.05v54.69s19.3-.16,19.3-.16c9.23-.08,16.75-6.1,20.9-14.37Z"/>
      <path class="cls-3" d="M282.25,20.1c-30.03,1.91-51.65,9.51-76.45,24.84-2.5,1.54-4.76,2.66-7.56,3.95,6.81-9.34,25.95-23.12,35.75-28.53,9.49-5.23,18.92-9.43,29.12-13.04,12.77-4.53,37.81-8.51,50.92-7.01,13.35,1.52,26.36,2.36,39.37,6.12,12.16,3.51,44.61,15.78,52.46,27l-44.17,9.84c-22.55-13.97-51.58-25.26-79.43-23.18Z"/>
      <path class="cls-3" d="M193.89,420.62c-8.81-4.1-22.88-9.87-29.32-18.49l44.18-9.8c21.76,13.5,48.98,24.17,75.19,23.38,23.31-.74,47.7-6.34,68.06-17.78l20.17-11.33c-5.45,8.12-23.5,21.35-31.67,26.26-10.7,6.43-21.83,11.49-33.73,15.58-19.84,6.81-40.4,7.66-61.16,5.77-18.29-1.67-35.13-5.87-51.71-13.59Z"/>
      <polygon class="cls-2" points="383.37 254.98 357.51 255.15 339.82 229.36 322.54 255.19 297.25 255 326.62 212.81 299.11 172.09 324.2 171.9 339.9 195.65 355.51 171.95 381.06 172.06 353.82 211.71 383.37 254.98"/>
      <path class="cls-2" d="M356.05,101.39c-22.17-27.43-52.39-48.18-87.76-51.53-23.91-2.26-46.7,2.84-69.32,10.83,12.83-7.44,26.41-12.64,40.73-16.98,40.04-12.12,83.37-5.49,116.76,19.98,21.98,15.75,38.14,33.78,50.82,58.12l-51.23-20.42Z"/>
      <path class="cls-2" d="M371.21,375.01c-14.6,8.44-30.71,14.43-47.42,18.75-30.5,7.88-66.08,4.06-93.76-11.43-14.47-8.36-27.28-18.42-39.37-30.01-10.81-11.7-20.08-23.96-27.57-38.54l51.42,20.5c10.54,13.2,22.45,24.03,36.39,33.38,15.69,9.78,32.8,16.2,51.23,18.22,23.68,1.86,46.07-2.65,69.07-10.86Z"/>
      <path class="cls-2" d="M278.82,542.89l-5.71,16.24-18.57-.04,25.36-71.35-6.97-.39,4.56-16.96,27.93.08,31.15,88.61-18.63.13-5.67-16.25-33.45-.09ZM308.08,528.05l-12.53-37.24-12.65,37.32,25.18-.08Z"/>
      <polygon class="cls-2" points="125.01 522.26 124.95 542.91 162.91 542.92 158.74 559.18 107.6 559.18 107.6 487.1 99.93 486.57 104.42 470.42 162.26 470.42 158.11 485.87 124.92 485.98 124.99 506.68 159.05 506.75 154.96 522.18 125.01 522.26"/>
      <path class="cls-3" d="M484.96,145.04l-48.63-14.43c-7.41-15.56-16.69-29.1-28-41.81l-25.55-25.53-7.16-6.23c-1.64-1.43-3.15-2.29-3.58-4.8,9.28,2.51,17.36,5.57,25.98,9.34,17.82,7.67,32.98,18.6,47.23,31.84,15.89,14.4,28.83,31.28,39.69,51.61Z"/>
      <path class="cls-3" d="M194.6,378.36c1.79,1.57,3.55,2.53,3.72,5.11-29.71-8.7-51.17-20.75-73.48-41.55l-12.26-12.04c-9.96-12.35-19.8-24.3-26.99-39.49l48.52,14.68c7.43,15.51,16.69,29.04,27.96,41.74l23.65,23.78,8.87,7.78Z"/>
      <path class="cls-2" d="M247.35,617.63l-2.76-7.33-14.81-.11-2.87,7.36-12.06.02-14.62-15.11-.36,14.78c-.89.38-3.42.36-4.85.04l-.04-29.23c-1.07-.82-2.64-1.67-2.62-2.5.03-1.02,1.14-3.46,2.3-3.46l14.71.09c6.35.04,10.6,5.3,10.59,10.69-.02,6.45-4.37,11.04-11.77,10.91l13.23,13.89,10.87-29.71c-.93-.95-1.73-1.65-1.78-2.4-.05-.87.98-3.4,1.84-3.4l7.44.02,12.81,35.21-5.23.24ZM211.28,598.35c2.84-.43,3.73-4.35,3.59-6.22-.12-1.63-1.95-4.94-3.88-4.98l-10.93-.27-.09,11.75c3.69.18,7.24.35,11.31-.28ZM243.04,605.23l-5.95-16.95-5.95,17.02,11.9-.07Z"/>
      <polygon class="cls-2" points="484.18 528.14 435.88 528.15 435.84 512.62 484.13 512.63 484.18 528.14"/>
      <path class="cls-2" d="M160.9,617.27c-1.12.24-3.15.25-4.45-.02l-16.86-24.74-.34,25.06-4.9-.22-.03-29.37-2.54-1.88c-.56-.41.44-2.84.95-3.31.99-.92,3.72-.72,5.74-.6l16.95,25.03.41-24.92,5.07.04v34.94Z"/>
      <path class="cls-2" d="M456.75,617.12c-.94.49-3.26.51-4.44.11l-16.86-24.72-.34,25.06-4.9-.22-.02-29.36-2.55-1.89c-.55-.41.44-2.84.95-3.31.98-.93,3.72-.72,5.74-.6l16.94,25.02.41-24.93,5.07.09v34.75Z"/>
      <path class="cls-2" d="M397.64,617.31c-5.54.64-10.58.27-16.23.25l-.06-29.52c-.63-.6-2.77-1.34-2.58-2l1.1-3.88c5.82-.02,11.51-.3,17.4.23,8.76.79,14.22,9.03,14.23,17.47.01,8.18-5.01,16.41-13.88,17.44ZM406.4,598.01c-.59-5.36-3.9-10.28-9.1-10.86-3.47-.39-6.81-.24-10.75-.13v25.63c4.26.15,8.44.65,12.04-.39,5.88-1.7,8.49-8.13,7.81-14.25Z"/>
      <path class="cls-2" d="M339.18,617.62l-14.71-15.16-.35,14.78c-.96.34-3.32.32-4.87.04l-.03-29.23c-.94-.78-2.95-1.77-2.64-2.54.34-.85,1.11-2.58,1.56-3.46,5.62.05,11.45-.05,16.9.31,6.02.39,9.47,6.34,9.15,11.21-.41,6.22-4.64,10.24-11.76,10.22l12.89,13.76-6.14.06ZM335.52,598.35c2.85-.42,3.74-4.34,3.6-6.23-.54-7.17-9.62-4.93-14.91-5.1l.11,11.75c4.11.02,7.31.16,11.2-.42Z"/>
      <path class="cls-2" d="M369.54,610.23l-14.74-.04-2.88,7.28-5.31-.08,10.61-29.42c-.85-.95-1.65-1.68-1.72-2.42-.08-.86.99-3.4,1.82-3.4h7.45s12.82,35.25,12.82,35.25l-5.31.08-2.74-7.26ZM368.04,605.22l-5.95-16.94-5.95,17.02,11.9-.08Z"/>
      <path class="cls-2" d="M125.93,602.03l-13.2.12-.03,10.55,15.8.24-1.22,4.7-19.52-.08-.11-29.44c-1.14-.98-2.89-2.24-2.57-3.28.54-1.72,1.73-2.84,3.54-2.83l19.69.15-1.35,4.73-14.18.03-.11,10.24,14.26.22-1.01,4.65Z"/>
      <path class="cls-2" d="M186.58,602.03l-13.2.12-.03,10.55,15.8.25-1.21,4.7-19.52-.08-.11-29.44c-1.14-.98-2.89-2.25-2.57-3.26.55-1.76,1.74-2.86,3.54-2.85l19.69.16-1.35,4.73-14.18.03-.11,10.24,14.25.22-1.01,4.64Z"/>
      <path class="cls-2" d="M305.01,616.77c-.9,1.09-3.43.99-5.07.55l-.04-30.19-9.98-.35,1.48-4.68,23.45.06-1.23,4.68-8.62.31v29.63Z"/>
      <path class="cls-2" d="M276.74,612.86l-1.1,4.78-18.51-.08-.03-29.57-2.54-1.87c-.56-.41.42-2.93.97-3.35,1.23-.94,4.21-.73,6.55-.49l.07,30.52,14.6.06Z"/>
      <path class="cls-2" d="M422.62,616.74c-.74,1.17-3.59,1.09-4.97.47l-.05-29.21-2.54-1.89c-.55-.41.43-2.91.97-3.34,1.22-.95,4.22-.74,6.56-.46l.02,34.43Z"/>
    </g>
  </g>
</svg>